# xmcd CD database file
#
# Track frame offsets:
#	150
#	14628
#	28715
#	44251
#	57781
#	67641
#	98707
#	114699
#	134540
#	150400
#	166444
#	179367
#	194702
#	205866
#	221989
#
# Disc length: 3147 seconds
#
# Revision: 2
# Processed by: cddbd v1.5.2PL0 Copyright (c) Steve Scherf et al.
# Submitted via: CDex 1.51
#
DISCID=d80c490f
DTITLE=GAL COSTA - Sem Limite disc 1
DYEAR=1900
DGENRE=MPB
TTITLE0=Festa do Interior
TTITLE1=Só Louco
TTITLE2=Meu Bem, Meu Mal
TTITLE3=Açaí
TTITLE4=Falsa Baiana
TTITLE5=Vapor Barato
TTITLE6=Baby
TTITLE7=Mil Perdões
TTITLE8=Dom de Iludir
TTITLE9=Força Estranha
TTITLE10=Camisa Amarela
TTITLE11=Estrado do sol
TTITLE12=São salvador
TTITLE13=Faltando Um Pedaço
TTITLE14=Balance
EXTD=
EXTT0=
EXTT1=
EXTT2=
EXTT3=
EXTT4=
EXTT5=
EXTT6=
EXTT7=
EXTT8=
EXTT9=
EXTT10=
EXTT11=
EXTT12=
EXTT13=
EXTT14=
PLAYORDER=
